Coordinates
version=1
nRows=19
nColumns=34
inDegrees=yes

Units are S.I. units (second, meters, Newtons, ...)
If the header above contains a line with 'inDegrees', this indicates whether rotational values are in degrees (yes) or radians (no).

endheader
time	pelvis_tilt	pelvis_list	pelvis_rotation	pelvis_tx	pelvis_ty	pelvis_tz	hip_flexion_r	hip_adduction_r	hip_rotation_r	knee_angle_r	ankle_angle_r	subtalar_angle_r	mtp_angle_r	hip_flexion_l	hip_adduction_l	hip_rotation_l	knee_angle_l	ankle_angle_l	subtalar_angle_l	mtp_angle_l	lumbar_extension	lumbar_bending	lumbar_rotation	arm_flex_r	arm_add_r	arm_rot_r	elbow_flex_r	pro_sup_r	arm_flex_l	arm_add_l	arm_rot_l	elbow_flex_l	pro_sup_l
      2.76666670	    -17.43416395	      2.03513754	     -1.44075602	      0.16754208	      1.07933958	     -0.05547033	     21.35970268	      2.66070190	     -0.36895380	     44.31639623	     31.24961662	    -11.95539724	      0.00000000	     28.42962494	     -4.21338273	     -5.63140197	     54.74431159	     25.90908826	     -2.74077170	      0.00000000	    -12.51560792	     -2.01815555	      1.08305025	     19.80686781	    -20.02452899	      1.65434860	    104.01960716	     88.79631211	     30.86139634	    -25.51805422	     12.54454949	     98.92810084	     89.09104278
      2.78333330	    -17.29900566	      2.77589342	     -1.68965701	      0.19354927	      1.09348088	     -0.05454274	     16.93481877	      1.74731921	     -0.63858996	     38.81059903	     27.94711623	    -10.87522716	      0.00000000	     24.11435378	     -3.37842555	     -6.58720965	     49.84389998	     21.95988611	     -2.71947062	      0.00000000	     -8.91034451	     -3.08919953	      1.31360954	     18.21734545	    -21.86221655	      1.92220620	    104.78177297	     90.95179186	     28.74633119	    -27.34985977	     12.45740502	    100.51723935	     90.49512661
      2.80000000	    -17.46382977	      4.11755593	     -1.98389086	      0.22020266	      1.10691849	     -0.05317084	     12.66037840	     -0.07489081	     -1.56421906	     33.14077127	     23.51699455	     -9.56012580	      0.00000000	     20.58492901	     -1.92303563	     -7.83055783	     45.03905034	     16.82492967	     -2.66864712	      0.00000000	     -5.12354776	     -4.73828281	      2.12366540	     15.80287694	    -23.32775375	      2.15763326	    105.54045637	     91.79511143	     25.90348298	    -28.66537611	     12.28761097	    102.14633679	     91.00428903
      2.81666670	    -17.64054917	      5.02096892	     -2.13453342	      0.24155296	      1.11615863	     -0.05241817	      9.36051027	     -1.47248790	     -3.08171912	     28.27465030	     18.85470226	     -8.03177582	      0.00000000	     18.25265669	     -0.96243009	     -8.31816457	     41.52033186	     11.52374020	     -2.48303342	      0.00000000	     -2.01495961	     -5.93931829	      2.43096042	     13.62674967	    -24.84142168	      2.35362860	    107.70977544	     92.47067214	     23.66054316	    -30.83264629	     12.36314504	    104.07969012	     91.34175100
      2.83333330	    -17.87213704	      5.87266995	     -2.43324985	      0.26023122	      1.13378648	     -0.05007223	      6.77740890	     -2.79496540	     -4.27711522	     24.22541609	     13.56043350	     -6.38640157	      0.00000000	     16.84148538	     -0.12887942	     -8.50984359	     38.47480084	      5.30462922	     -1.77870463	      0.00000000	      0.44529012	     -7.06092071	      2.81951302	     10.42582646	    -26.25365284	      1.79505545	    109.89449565	     92.98612531	     20.66176843	    -32.82066668	     11.79030059	    105.87390958	     91.43621800
      2.85000000	    -18.15433220	      6.28894162	     -2.55815124	      0.28293459	      1.14886375	     -0.04837827	      5.02646005	     -3.59354931	     -5.97025715	     21.01518392	      6.95321268	     -4.23818579	      0.00000000	     15.50734294	      0.25807022	     -8.47067369	     35.82528100	     -0.51727250	     -0.34892674	      0.00000000	      2.29360636	     -7.52884876	      3.53084873	      6.55929550	    -27.52057132	      0.43131898	    112.08549654	     93.28447801	     16.71465575	    -34.21437311	     10.44962264	    108.07261073	     91.28857907
      2.86666670	    -17.80983219	      6.00664676	     -2.53164253	      0.30869602	      1.16806264	     -0.04834655	      3.56462043	     -3.82099692	     -7.13379401	     19.39600218	     -0.88763376	     -2.68493319	      0.00000000	     14.46157445	     -0.10334135	     -7.87445249	     34.47880797	     -8.43834652	     -0.40959806	      0.00000000	      2.85093551	     -7.08594730	      4.04723342	      1.35644382	    -28.10918319	     -1.63475785	    113.60740520	     93.43941757	     11.49301250	    -34.58412094	      8.40450488	    109.79702086	     90.99969799
      2.88333330	    -17.05935567	      5.89690223	     -2.51531086	      0.32880217	      1.18587371	     -0.04551701	      2.40943808	     -4.19068473	     -7.86062556	     18.29778230	    -10.06399351	     -1.33496326	      0.00000000	     14.30328398	     -0.35402147	     -6.93319225	     34.73814305	    -14.35605125	     -1.09447913	      0.00000000	      2.55597683	     -6.90851110	      4.73127330	     -3.17397445	    -27.88218592	     -3.48808022	    113.83960982	     93.49895202	      5.85501585	    -34.73889808	      6.23352426	    111.56499244	     90.71529334
      2.90000000	    -16.03844737	      5.61824749	     -2.05317902	      0.34617071	      1.19913621	     -0.04556566	      2.08653928	     -4.53339296	     -8.72100612	     19.06805285	    -17.47388405	     -0.59173536	      0.00000000	     15.26694458	     -0.87000808	     -6.34487698	     36.77991392	    -17.02187034	     -0.29344152	      0.00000000	      0.53796285	     -6.65189300	     -0.03792039	     -2.08326669	    -27.81623110	      0.98206112	    112.26862365	     95.51201781	     -7.07860012	    -33.82692654	     -5.38356598	    117.33022872	     89.51010143
      2.91666670	    -14.58169350	      5.76231246	     -2.04891411	      0.36547472	      1.21808034	     -0.04352869	      1.60459523	     -5.34620211	     -8.97241006	     20.25337504	    -26.17656524	     -1.55703864	      0.00000000	     16.17962286	     -0.81789489	     -6.16182949	     39.27179997	    -19.88321585	     -2.74547913	      0.00000000	     -0.93984088	     -6.83178453	     -0.45442121	     -3.71475744	    -26.74603135	      1.47926829	    109.04011815	     95.35172205	    -10.84502127	    -33.67617515	     -6.35955362	    115.03491183	     89.54081136
      2.93333330	    -13.66438093	      5.40175266	     -1.64537073	      0.37969135	      1.23152198	     -0.04207785	      2.80159418	     -5.25147816	     -8.55000051	     22.22173611	    -30.97109467	     -2.57494809	      0.00000000	     17.44255558	     -1.29131276	     -6.39798960	     40.68817872	    -19.28379218	     -2.06789009	      0.00000000	     -2.89615625	     -6.61603562	     -1.94286887	     -4.53594199	    -25.78807639	      3.38007467	    105.43017586	     94.83839194	    -15.64912203	    -32.40274408	     -9.23091051	    114.16285170	     89.64900763
      2.95000000	    -12.20435806	      4.35864917	     -0.87916600	      0.39534538	      1.23573462	     -0.04359541	      3.89813691	     -5.12192043	     -9.90661222	     25.62543967	    -35.53583521	     -2.60658254	      0.00000000	     17.90431763	     -1.97687053	     -5.95004833	     41.39888610	    -18.91159865	     -1.01426721	      0.00000000	     -5.70092277	     -5.43223149	     -2.30600804	     -6.11864520	    -25.59342273	      3.58080347	    102.68690781	     94.69685925	    -17.57189261	    -31.17330482	     -9.19683840	    112.42905705	     89.70933835
      2.96666670	    -11.23885004	      3.41124639	     -0.58401117	      0.41101670	      1.24204130	     -0.04267933	      5.99721098	     -4.85802487	    -10.28600601	     28.45665705	    -37.99309111	     -4.67192119	      0.00000000	     19.03901092	     -2.92374754	     -6.58023460	     42.14796016	    -20.89522645	     -0.40272557	      0.00000000	     -8.12998060	     -4.42848228	     -2.13835326	     -6.99629854	    -24.97755801	      3.60813199	     99.02141958	     94.48588378	    -19.43250298	    -30.00518578	     -9.35881885	    110.26503510	     89.78994503
      2.98333330	    -11.03349429	      2.80885323	     -0.35285044	      0.42966801	      1.23982635	     -0.04373756	      7.98517358	     -4.89822513	    -10.85780763	     28.96858289	    -36.88915068	     -4.48016660	      0.00000000	     20.17400190	     -3.33008514	     -7.22492828	     41.20377697	    -20.25678666	     -0.37191097	      0.00000000	     -8.78452413	     -3.68077063	     -3.43536130	     -5.30140167	    -25.29163598	      7.62170442	     93.34021713	     93.34846292	    -23.03182162	    -28.70871870	    -10.28349524	    107.76748549	     90.29958681
      3.00000000	    -10.89541593	      2.56958695	     -0.52366783	      0.44814278	      1.23454302	     -0.04216493	      9.42913144	     -5.16133225	    -11.50924369	     27.81652079	    -33.32623933	     -3.59224571	      0.00000000	     20.55361372	     -3.32082593	     -7.78846654	     38.55854622	    -20.40131803	      2.11502190	      0.00000000	     -9.37385911	     -3.58720104	     -5.06008528	     -3.78567062	    -24.77223528	     11.52135240	     88.12343667	     91.21679800	    -27.92676874	    -26.39722559	    -13.29218144	    105.85945173	     90.80173135
      3.01666670	    -10.96351902	      2.34089722	     -0.53943797	      0.46303567	      1.22989118	     -0.04293534	     11.00508065	     -5.25082889	    -11.57647244	     25.64479798	    -24.38642398	     -2.47504799	      0.00000000	     20.99797439	     -3.24294554	     -8.59016346	     35.48927570	    -21.35289068	      3.68245909	      0.00000000	     -9.84186688	     -3.26789613	     -4.43477668	     -5.21008021	    -24.18187421	     11.38511806	     84.87900698	     90.89156141	    -29.62030560	    -25.32171171	    -13.04262433	    102.54236036	     90.82562227
      3.03333330	    -11.26396335	      2.26914177	     -0.52743240	      0.47908009	      1.22066242	     -0.04346385	     12.69431584	     -5.56000544	    -12.47297731	     23.62273254	    -20.51656308	     -0.89616961	      0.00000000	     21.86073506	     -2.78350133	     -9.04111690	     32.24475242	    -22.07686174	      4.01260242	      0.00000000	    -10.15659981	     -3.11483690	     -3.92442354	     -6.76399234	    -23.71907389	     11.59290175	     81.97556030	     90.52652406	    -31.60980830	    -24.41669333	    -12.39191314	     99.71014304	     90.83896591
      3.05000000	    -11.83728882	      2.55993064	     -0.17883854	      0.49536602	      1.20964005	     -0.04311605	     14.09633573	     -6.16784964	    -12.83035458	     20.96085886	    -18.16098765	      1.21305116	      0.00000000	     22.91001845	     -1.89976234	     -9.75346122	     28.25894585	    -21.94011888	      4.18110164	      0.00000000	    -10.29702110	     -3.34548494	     -3.66858609	     -8.67967679	    -23.07365163	     11.42573350	     79.90813940	     90.16116231	    -33.73871454	    -23.67784319	    -11.77800974	     96.82454708	     90.76764160
      3.06666670	    -12.21575863	      2.80422179	      0.11816433	      0.51018738	      1.19703669	     -0.04119554	     15.77233224	     -6.64971258	    -12.89377066	     19.15277261	    -17.50276688	      2.65419609	      0.00000000	     24.16254678	     -1.14436156	    -10.29415436	     24.95649781	    -23.13491414	      3.84094242	      0.00000000	    -10.91006641	     -3.48641258	     -3.36555984	    -10.48709868	    -22.21556169	     11.09339240	     78.14901057	     89.73026913	    -35.32868572	    -23.24196160	    -10.86615683	     94.01959831	     90.61198090
